<?xml version="1.0" encoding="utf-8" standalone="no"?>
<!DOCTYPE svg PUBLIC "-//W3C//DTD SVG 1.1//EN"
  "http://www.w3.org/Graphics/SVG/1.1/DTD/svg11.dtd">
<!-- Created with matplotlib (https://matplotlib.org/) -->
<svg height="720pt" version="1.1" viewBox="0 0 1080 720" width="1080pt" xmlns="http://www.w3.org/2000/svg" xmlns:xlink="http://www.w3.org/1999/xlink">
 <defs>
  <style type="text/css">
*{stroke-linecap:butt;stroke-linejoin:round;}
  </style>
 </defs>
 <g id="figure_1">
  <g id="patch_1">
   <path d="M 0 720 
L 1080 720 
L 1080 0 
L 0 0 
z
" style="fill:#ffffff;"/>
  </g>
  <g id="axes_1">
   <g id="patch_2">
    <path d="M 135 630 
L 972 630 
L 972 86.4 
L 135 86.4 
z
" style="fill:#ffffff;"/>
   </g>
   <g id="matplotlib.axis_1">
    <g id="xtick_1">
     <g id="line2d_1">
      <defs>
       <path d="M 0 0 
L 0 3.5 
" id="mb2af16193b" style="stroke:#000000;stroke-width:0.8;"/>
      </defs>
      <g>
       <use style="stroke:#000000;stroke-width:0.8;" x="135" xlink:href="#mb2af16193b" y="630"/>
      </g>
     </g>
     <g id="text_1">
      <!-- 0.0 -->
      <defs>
       <path d="M 31.78125 66.40625 
Q 24.171875 66.40625 20.328125 58.90625 
Q 16.5 51.421875 16.5 36.375 
Q 16.5 21.390625 20.328125 13.890625 
Q 24.171875 6.390625 31.78125 6.390625 
Q 39.453125 6.390625 43.28125 13.890625 
Q 47.125 21.390625 47.125 36.375 
Q 47.125 51.421875 43.28125 58.90625 
Q 39.453125 66.40625 31.78125 66.40625 
z
M 31.78125 74.21875 
Q 44.046875 74.21875 50.515625 64.515625 
Q 56.984375 54.828125 56.984375 36.375 
Q 56.984375 17.96875 50.515625 8.265625 
Q 44.046875 -1.421875 31.78125 -1.421875 
Q 19.53125 -1.421875 13.0625 8.265625 
Q 6.59375 17.96875 6.59375 36.375 
Q 6.59375 54.828125 13.0625 64.515625 
Q 19.53125 74.21875 31.78125 74.21875 
z
" id="DejaVuSans-48"/>
       <path d="M 10.6875 12.40625 
L 21 12.40625 
L 21 0 
L 10.6875 0 
z
" id="DejaVuSans-46"/>
      </defs>
      <g transform="translate(127.048438 644.598438)scale(0.1 -0.1)">
       <use xlink:href="#DejaVuSans-48"/>
       <use x="63.623047" xlink:href="#DejaVuSans-46"/>
       <use x="95.410156" xlink:href="#DejaVuSans-48"/>
      </g>
     </g>
    </g>
    <g id="xtick_2">
     <g id="line2d_2">
      <g>
       <use style="stroke:#000000;stroke-width:0.8;" x="302.4" xlink:href="#mb2af16193b" y="630"/>
      </g>
     </g>
     <g id="text_2">
      <!-- 0.2 -->
      <defs>
       <path d="M 19.1875 8.296875 
L 53.609375 8.296875 
L 53.609375 0 
L 7.328125 0 
L 7.328125 8.296875 
Q 12.9375 14.109375 22.625 23.890625 
Q 32.328125 33.6875 34.8125 36.53125 
Q 39.546875 41.84375 41.421875 45.53125 
Q 43.3125 49.21875 43.3125 52.78125 
Q 43.3125 58.59375 39.234375 62.25 
Q 35.15625 65.921875 28.609375 65.921875 
Q 23.96875 65.921875 18.8125 64.3125 
Q 13.671875 62.703125 7.8125 59.421875 
L 7.8125 69.390625 
Q 13.765625 71.78125 18.9375 73 
Q 24.125 74.21875 28.421875 74.21875 
Q 39.75 74.21875 46.484375 68.546875 
Q 53.21875 62.890625 53.21875 53.421875 
Q 53.21875 48.921875 51.53125 44.890625 
Q 49.859375 40.875 45.40625 35.40625 
Q 44.1875 33.984375 37.640625 27.21875 
Q 31.109375 20.453125 19.1875 8.296875 
z
" id="DejaVuSans-50"/>
      </defs>
      <g transform="translate(294.448437 644.598438)scale(0.1 -0.1)">
       <use xlink:href="#DejaVuSans-48"/>
       <use x="63.623047" xlink:href="#DejaVuSans-46"/>
       <use x="95.410156" xlink:href="#DejaVuSans-50"/>
      </g>
     </g>
    </g>
    <g id="xtick_3">
     <g id="line2d_3">
      <g>
       <use style="stroke:#000000;stroke-width:0.8;" x="469.8" xlink:href="#mb2af16193b" y="630"/>
      </g>
     </g>
     <g id="text_3">
      <!-- 0.4 -->
      <defs>
       <path d="M 37.796875 64.3125 
L 12.890625 25.390625 
L 37.796875 25.390625 
z
M 35.203125 72.90625 
L 47.609375 72.90625 
L 47.609375 25.390625 
L 58.015625 25.390625 
L 58.015625 17.1875 
L 47.609375 17.1875 
L 47.609375 0 
L 37.796875 0 
L 37.796875 17.1875 
L 4.890625 17.1875 
L 4.890625 26.703125 
z
" id="DejaVuSans-52"/>
      </defs>
      <g transform="translate(461.848437 644.598438)scale(0.1 -0.1)">
       <use xlink:href="#DejaVuSans-48"/>
       <use x="63.623047" xlink:href="#DejaVuSans-46"/>
       <use x="95.410156" xlink:href="#DejaVuSans-52"/>
      </g>
     </g>
    </g>
    <g id="xtick_4">
     <g id="line2d_4">
      <g>
       <use style="stroke:#000000;stroke-width:0.8;" x="637.2" xlink:href="#mb2af16193b" y="630"/>
      </g>
     </g>
     <g id="text_4">
      <!-- 0.6 -->
      <defs>
       <path d="M 33.015625 40.375 
Q 26.375 40.375 22.484375 35.828125 
Q 18.609375 31.296875 18.609375 23.390625 
Q 18.609375 15.53125 22.484375 10.953125 
Q 26.375 6.390625 33.015625 6.390625 
Q 39.65625 6.390625 43.53125 10.953125 
Q 47.40625 15.53125 47.40625 23.390625 
Q 47.40625 31.296875 43.53125 35.828125 
Q 39.65625 40.375 33.015625 40.375 
z
M 52.59375 71.296875 
L 52.59375 62.3125 
Q 48.875 64.0625 45.09375 64.984375 
Q 41.3125 65.921875 37.59375 65.921875 
Q 27.828125 65.921875 22.671875 59.328125 
Q 17.53125 52.734375 16.796875 39.40625 
Q 19.671875 43.65625 24.015625 45.921875 
Q 28.375 48.1875 33.59375 48.1875 
Q 44.578125 48.1875 50.953125 41.515625 
Q 57.328125 34.859375 57.328125 23.390625 
Q 57.328125 12.15625 50.6875 5.359375 
Q 44.046875 -1.421875 33.015625 -1.421875 
Q 20.359375 -1.421875 13.671875 8.265625 
Q 6.984375 17.96875 6.984375 36.375 
Q 6.984375 53.65625 15.1875 63.9375 
Q 23.390625 74.21875 37.203125 74.21875 
Q 40.921875 74.21875 44.703125 73.484375 
Q 48.484375 72.75 52.59375 71.296875 
z
" id="DejaVuSans-54"/>
      </defs>
      <g transform="translate(629.248438 644.598438)scale(0.1 -0.1)">
       <use xlink:href="#DejaVuSans-48"/>
       <use x="63.623047" xlink:href="#DejaVuSans-46"/>
       <use x="95.410156" xlink:href="#DejaVuSans-54"/>
      </g>
     </g>
    </g>
    <g id="xtick_5">
     <g id="line2d_5">
      <g>
       <use style="stroke:#000000;stroke-width:0.8;" x="804.6" xlink:href="#mb2af16193b" y="630"/>
      </g>
     </g>
     <g id="text_5">
      <!-- 0.8 -->
      <defs>
       <path d="M 31.78125 34.625 
Q 24.75 34.625 20.71875 30.859375 
Q 16.703125 27.09375 16.703125 20.515625 
Q 16.703125 13.921875 20.71875 10.15625 
Q 24.75 6.390625 31.78125 6.390625 
Q 38.8125 6.390625 42.859375 10.171875 
Q 46.921875 13.96875 46.921875 20.515625 
Q 46.921875 27.09375 42.890625 30.859375 
Q 38.875 34.625 31.78125 34.625 
z
M 21.921875 38.8125 
Q 15.578125 40.375 12.03125 44.71875 
Q 8.5 49.078125 8.5 55.328125 
Q 8.5 64.0625 14.71875 69.140625 
Q 20.953125 74.21875 31.78125 74.21875 
Q 42.671875 74.21875 48.875 69.140625 
Q 55.078125 64.0625 55.078125 55.328125 
Q 55.078125 49.078125 51.53125 44.71875 
Q 48 40.375 41.703125 38.8125 
Q 48.828125 37.15625 52.796875 32.3125 
Q 56.78125 27.484375 56.78125 20.515625 
Q 56.78125 9.90625 50.3125 4.234375 
Q 43.84375 -1.421875 31.78125 -1.421875 
Q 19.734375 -1.421875 13.25 4.234375 
Q 6.78125 9.90625 6.78125 20.515625 
Q 6.78125 27.484375 10.78125 32.3125 
Q 14.796875 37.15625 21.921875 38.8125 
z
M 18.3125 54.390625 
Q 18.3125 48.734375 21.84375 45.5625 
Q 25.390625 42.390625 31.78125 42.390625 
Q 38.140625 42.390625 41.71875 45.5625 
Q 45.3125 48.734375 45.3125 54.390625 
Q 45.3125 60.0625 41.71875 63.234375 
Q 38.140625 66.40625 31.78125 66.40625 
Q 25.390625 66.40625 21.84375 63.234375 
Q 18.3125 60.0625 18.3125 54.390625 
z
" id="DejaVuSans-56"/>
      </defs>
      <g transform="translate(796.648438 644.598438)scale(0.1 -0.1)">
       <use xlink:href="#DejaVuSans-48"/>
       <use x="63.623047" xlink:href="#DejaVuSans-46"/>
       <use x="95.410156" xlink:href="#DejaVuSans-56"/>
      </g>
     </g>
    </g>
    <g id="xtick_6">
     <g id="line2d_6">
      <g>
       <use style="stroke:#000000;stroke-width:0.8;" x="972" xlink:href="#mb2af16193b" y="630"/>
      </g>
     </g>
     <g id="text_6">
      <!-- 1.0 -->
      <defs>
       <path d="M 12.40625 8.296875 
L 28.515625 8.296875 
L 28.515625 63.921875 
L 10.984375 60.40625 
L 10.984375 69.390625 
L 28.421875 72.90625 
L 38.28125 72.90625 
L 38.28125 8.296875 
L 54.390625 8.296875 
L 54.390625 0 
L 12.40625 0 
z
" id="DejaVuSans-49"/>
      </defs>
      <g transform="translate(964.048437 644.598438)scale(0.1 -0.1)">
       <use xlink:href="#DejaVuSans-49"/>
       <use x="63.623047" xlink:href="#DejaVuSans-46"/>
       <use x="95.410156" xlink:href="#DejaVuSans-48"/>
      </g>
     </g>
    </g>
   </g>
   <g id="matplotlib.axis_2">
    <g id="ytick_1">
     <g id="line2d_7">
      <defs>
       <path d="M 0 0 
L -3.5 0 
" id="md66365f8d8" style="stroke:#000000;stroke-width:0.8;"/>
      </defs>
      <g>
       <use style="stroke:#000000;stroke-width:0.8;" x="135" xlink:href="#md66365f8d8" y="630"/>
      </g>
     </g>
     <g id="text_7">
      <!-- 0.0 -->
      <g transform="translate(112.096875 633.799219)scale(0.1 -0.1)">
       <use xlink:href="#DejaVuSans-48"/>
       <use x="63.623047" xlink:href="#DejaVuSans-46"/>
       <use x="95.410156" xlink:href="#DejaVuSans-48"/>
      </g>
     </g>
    </g>
    <g id="ytick_2">
     <g id="line2d_8">
      <g>
       <use style="stroke:#000000;stroke-width:0.8;" x="135" xlink:href="#md66365f8d8" y="521.28"/>
      </g>
     </g>
     <g id="text_8">
      <!-- 0.2 -->
      <g transform="translate(112.096875 525.079219)scale(0.1 -0.1)">
       <use xlink:href="#DejaVuSans-48"/>
       <use x="63.623047" xlink:href="#DejaVuSans-46"/>
       <use x="95.410156" xlink:href="#DejaVuSans-50"/>
      </g>
     </g>
    </g>
    <g id="ytick_3">
     <g id="line2d_9">
      <g>
       <use style="stroke:#000000;stroke-width:0.8;" x="135" xlink:href="#md66365f8d8" y="412.56"/>
      </g>
     </g>
     <g id="text_9">
      <!-- 0.4 -->
      <g transform="translate(112.096875 416.359219)scale(0.1 -0.1)">
       <use xlink:href="#DejaVuSans-48"/>
       <use x="63.623047" xlink:href="#DejaVuSans-46"/>
       <use x="95.410156" xlink:href="#DejaVuSans-52"/>
      </g>
     </g>
    </g>
    <g id="ytick_4">
     <g id="line2d_10">
      <g>
       <use style="stroke:#000000;stroke-width:0.8;" x="135" xlink:href="#md66365f8d8" y="303.84"/>
      </g>
     </g>
     <g id="text_10">
      <!-- 0.6 -->
      <g transform="translate(112.096875 307.639219)scale(0.1 -0.1)">
       <use xlink:href="#DejaVuSans-48"/>
       <use x="63.623047" xlink:href="#DejaVuSans-46"/>
       <use x="95.410156" xlink:href="#DejaVuSans-54"/>
      </g>
     </g>
    </g>
    <g id="ytick_5">
     <g id="line2d_11">
      <g>
       <use style="stroke:#000000;stroke-width:0.8;" x="135" xlink:href="#md66365f8d8" y="195.12"/>
      </g>
     </g>
     <g id="text_11">
      <!-- 0.8 -->
      <g transform="translate(112.096875 198.919219)scale(0.1 -0.1)">
       <use xlink:href="#DejaVuSans-48"/>
       <use x="63.623047" xlink:href="#DejaVuSans-46"/>
       <use x="95.410156" xlink:href="#DejaVuSans-56"/>
      </g>
     </g>
    </g>
    <g id="ytick_6">
     <g id="line2d_12">
      <g>
       <use style="stroke:#000000;stroke-width:0.8;" x="135" xlink:href="#md66365f8d8" y="86.4"/>
      </g>
     </g>
     <g id="text_12">
      <!-- 1.0 -->
      <g transform="translate(112.096875 90.199219)scale(0.1 -0.1)">
       <use xlink:href="#DejaVuSans-49"/>
       <use x="63.623047" xlink:href="#DejaVuSans-46"/>
       <use x="95.410156" xlink:href="#DejaVuSans-48"/>
      </g>
     </g>
    </g>
   </g>
   <g id="patch_3">
    <path d="M 135 630 
L 135 86.4 
" style="fill:none;stroke:#000000;stroke-linecap:square;stroke-linejoin:miter;stroke-width:0.8;"/>
   </g>
   <g id="patch_4">
    <path d="M 972 630 
L 972 86.4 
" style="fill:none;stroke:#000000;stroke-linecap:square;stroke-linejoin:miter;stroke-width:0.8;"/>
   </g>
   <g id="patch_5">
    <path d="M 135 630 
L 972 630 
" style="fill:none;stroke:#000000;stroke-linecap:square;stroke-linejoin:miter;stroke-width:0.8;"/>
   </g>
   <g id="patch_6">
    <path d="M 135 86.4 
L 972 86.4 
" style="fill:none;stroke:#000000;stroke-linecap:square;stroke-linejoin:miter;stroke-width:0.8;"/>
   </g>
  </g>
  <g id="axes_2">
   <g id="patch_7">
    <path d="M 135 630 
L 972 630 
L 972 86.4 
L 135 86.4 
z
" style="fill:#ffffff;"/>
   </g>
   <g id="patch_8">
    <path clip-path="url(#pf7afe51f55)" d="M 551.468108 277.996313 
C 553.628029 277.996313 555.699775 277.13235 557.22707 275.594701 
C 558.754365 274.057053 559.61251 271.971262 559.61251 269.796699 
C 559.61251 267.622136 558.754365 265.536345 557.22707 263.998696 
C 555.699775 262.461048 553.628029 261.597085 551.468108 261.597085 
C 549.308187 261.597085 547.23644 262.461048 545.709145 263.998696 
C 544.181851 265.536345 543.323705 267.622136 543.323705 269.796699 
C 543.323705 271.971262 544.181851 274.057053 545.709145 275.594701 
C 547.23644 277.13235 549.308187 277.996313 551.468108 277.996313 
z
" style="fill:#8f4d5e;opacity:0.9;stroke:#000000;stroke-linejoin:miter;"/>
   </g>
   <g id="patch_9">
    <path clip-path="url(#pf7afe51f55)" d="M 622.753662 280.050453 
C 634.373904 280.050453 645.519776 275.402384 653.736529 267.12993 
C 661.953281 258.857476 666.570052 247.636046 666.570052 235.937029 
C 666.570052 224.238013 661.953281 213.016582 653.736529 204.744128 
C 645.519776 196.471674 634.373904 191.823606 622.753662 191.823606 
C 611.133419 191.823606 599.987547 196.471674 591.770795 204.744128 
C 583.554043 213.016582 578.937271 224.238013 578.937271 235.937029 
C 578.937271 247.636046 583.554043 258.857476 591.770795 267.12993 
C 599.987547 275.402384 611.133419 280.050453 622.753662 280.050453 
z
" style="fill:#f48546;opacity:0.9;stroke:#000000;stroke-linejoin:miter;"/>
   </g>
   <g id="patch_10">
    <path clip-path="url(#pf7afe51f55)" d="M 646.479866 309.40507 
C 647.635325 309.40507 648.743615 308.94289 649.560648 308.120318 
C 650.377681 307.297746 650.83675 306.181943 650.83675 305.018651 
C 650.83675 303.855359 650.377681 302.739556 649.560648 301.916984 
C 648.743615 301.094412 647.635325 300.632231 646.479866 300.632231 
C 645.324407 300.632231 644.216117 301.094412 643.399084 301.916984 
C 642.582051 302.739556 642.122982 303.855359 642.122982 305.018651 
C 642.122982 306.181943 642.582051 307.297746 643.399084 308.120318 
C 644.216117 308.94289 645.324407 309.40507 646.479866 309.40507 
z
" style="fill:#62317c;opacity:0.9;stroke:#000000;stroke-linejoin:miter;"/>
   </g>
   <g id="patch_11">
    <path clip-path="url(#pf7afe51f55)" d="M 641.486283 362.713028 
C 642.136228 362.713028 642.759642 362.453051 643.219223 361.990354 
C 643.678804 361.527658 643.93703 360.900018 643.93703 360.245667 
C 643.93703 359.591315 643.678804 358.963675 643.219223 358.500979 
C 642.759642 358.038282 642.136228 357.778306 641.486283 357.778306 
C 640.836337 357.778306 640.212924 358.038282 639.753343 358.500979 
C 639.293762 358.963675 639.035535 359.591315 639.035535 360.245667 
C 639.035535 360.900018 639.293762 361.527658 639.753343 361.990354 
C 640.212924 362.453051 640.836337 362.713028 641.486283 362.713028 
z
" style="fill:#84a697;opacity:0.9;stroke:#000000;stroke-linejoin:miter;"/>
   </g>
   <g id="patch_12">
    <path clip-path="url(#pf7afe51f55)" d="M 628.647338 405.854461 
C 628.844291 405.854461 629.033204 405.77568 629.172471 405.635469 
C 629.311738 405.495258 629.389988 405.305064 629.389988 405.106775 
C 629.389988 404.908487 629.311738 404.718293 629.172471 404.578082 
C 629.033204 404.437871 628.844291 404.35909 628.647338 404.35909 
C 628.450384 404.35909 628.261471 404.437871 628.122204 404.578082 
C 627.982937 404.718293 627.904687 404.908487 627.904687 405.106775 
C 627.904687 405.305064 627.982937 405.495258 628.122204 405.635469 
C 628.261471 405.77568 628.450384 405.854461 628.647338 405.854461 
z
" style="fill:#262ba1;opacity:0.9;stroke:#000000;stroke-linejoin:miter;"/>
   </g>
   <g id="patch_13">
    <path clip-path="url(#pf7afe51f55)" d="M 608.531901 466.532599 
C 610.317611 466.532599 612.030423 465.81832 613.29311 464.547073 
C 614.555797 463.275826 615.265267 461.551402 615.265267 459.753587 
C 615.265267 457.955772 614.555797 456.231349 613.29311 454.960102 
C 612.030423 453.688855 610.317611 452.974575 608.531901 452.974575 
C 606.746192 452.974575 605.03338 453.688855 603.770692 454.960102 
C 602.508005 456.231349 601.798535 457.955772 601.798535 459.753587 
C 601.798535 461.551402 602.508005 463.275826 603.770692 464.547073 
C 605.03338 465.81832 606.746192 466.532599 608.531901 466.532599 
z
" style="fill:#c1edca;opacity:0.9;stroke:#000000;stroke-linejoin:miter;"/>
   </g>
   <g id="patch_14">
    <path clip-path="url(#pf7afe51f55)" d="M 551.468108 414.5625 
C 552.013012 414.5625 552.535671 414.34454 552.920977 413.956623 
C 553.306282 413.568705 553.522775 413.042503 553.522775 412.493905 
C 553.522775 411.945307 553.306282 411.419104 552.920977 411.031187 
C 552.535671 410.643269 552.013012 410.425309 551.468108 410.425309 
C 550.923204 410.425309 550.400544 410.643269 550.015239 411.031187 
C 549.629933 411.419104 549.413441 411.945307 549.413441 412.493905 
C 549.413441 413.042503 549.629933 413.568705 550.015239 413.956623 
C 550.400544 414.34454 550.923204 414.5625 551.468108 414.5625 
z
" style="fill:#4ea161;opacity:0.9;stroke:#000000;stroke-linejoin:miter;"/>
   </g>
   <g id="patch_15">
    <path clip-path="url(#pf7afe51f55)" d="M 521.98042 413.360222 
C 522.426847 413.360222 522.85505 413.181653 523.170722 412.863841 
C 523.486394 412.546029 523.663761 412.114923 523.663761 411.665469 
C 523.663761 411.216016 523.486394 410.78491 523.170722 410.467098 
C 522.85505 410.149286 522.426847 409.970716 521.98042 409.970716 
C 521.533992 409.970716 521.105789 410.149286 520.790117 410.467098 
C 520.474446 410.78491 520.297078 411.216016 520.297078 411.665469 
C 520.297078 412.114923 520.474446 412.546029 520.790117 412.863841 
C 521.105789 413.181653 521.533992 413.360222 521.98042 413.360222 
z
" style="fill:#43900b;opacity:0.9;stroke:#000000;stroke-linejoin:miter;"/>
   </g>
   <g id="patch_16">
    <path clip-path="url(#pf7afe51f55)" d="M 443.067843 450.669711 
C 450.289463 450.669711 457.216276 447.781081 462.322732 442.640008 
C 467.429188 437.498935 470.298368 430.525165 470.298368 423.254589 
C 470.298368 415.984014 467.429188 409.010244 462.322732 403.869171 
C 457.216276 398.728097 450.289463 395.839467 443.067843 395.839467 
C 435.846223 395.839467 428.91941 398.728097 423.812954 403.869171 
C 418.706498 409.010244 415.837318 415.984014 415.837318 423.254589 
C 415.837318 430.525165 418.706498 437.498935 423.812954 442.640008 
C 428.91941 447.781081 435.846223 450.669711 443.067843 450.669711 
z
" style="fill:#757f58;opacity:0.9;stroke:#000000;stroke-linejoin:miter;"/>
   </g>
   <g id="patch_17">
    <path clip-path="url(#pf7afe51f55)" d="M 443.813464 375.82244 
C 447.916657 375.82244 451.852346 374.181173 454.753742 371.260109 
C 457.655138 368.339045 459.285354 364.376675 459.285354 360.245667 
C 459.285354 356.114658 457.655138 352.152288 454.753742 349.231224 
C 451.852346 346.31016 447.916657 344.668893 443.813464 344.668893 
C 439.710271 344.668893 435.774582 346.31016 432.873186 349.231224 
C 429.971791 352.152288 428.341575 356.114658 428.341575 360.245667 
C 428.341575 364.376675 429.971791 368.339045 432.873186 371.260109 
C 435.774582 374.181173 439.710271 375.82244 443.813464 375.82244 
z
" style="fill:#472a60;opacity:0.9;stroke:#000000;stroke-linejoin:miter;"/>
   </g>
   <g id="patch_18">
    <path clip-path="url(#pf7afe51f55)" d="M 432.060274 356.185736 
C 449.27399 356.185736 465.784993 349.300292 477.956928 337.045843 
C 490.128863 324.791394 496.967944 308.168462 496.967944 290.838054 
C 496.967944 273.507647 490.128863 256.884714 477.956928 244.630265 
C 465.784993 232.375817 449.27399 225.490373 432.060274 225.490373 
C 414.846559 225.490373 398.335556 232.375817 386.163621 244.630265 
C 373.991686 256.884714 367.152605 273.507647 367.152605 290.838054 
C 367.152605 308.168462 373.991686 324.791394 386.163621 337.045843 
C 398.335556 349.300292 414.846559 356.185736 432.060274 356.185736 
z
" style="fill:#804fb4;opacity:0.9;stroke:#000000;stroke-linejoin:miter;"/>
   </g>
   <g id="patch_19">
    <path clip-path="url(#pf7afe51f55)" d="M 513.979101 302.674907 
C 516.03398 302.674907 518.004973 301.852961 519.457992 300.390092 
C 520.911011 298.927223 521.727423 296.942868 521.727423 294.874059 
C 521.727423 292.80525 520.911011 290.820895 519.457992 289.358026 
C 518.004973 287.895157 516.03398 287.07321 513.979101 287.07321 
C 511.924222 287.07321 509.953229 287.895157 508.50021 289.358026 
C 507.047191 290.820895 506.230779 292.80525 506.230779 294.874059 
C 506.230779 296.942868 507.047191 298.927223 508.50021 300.390092 
C 509.953229 301.852961 511.924222 302.674907 513.979101 302.674907 
z
" style="fill:#a55cf8;opacity:0.9;stroke:#000000;stroke-linejoin:miter;"/>
   </g>
   <g id="patch_20">
    <path clip-path="url(#pf7afe51f55)" d="M 551.468108 367.722518 
C 553.43764 367.722518 555.326771 366.93471 556.719441 365.532599 
C 558.112111 364.130488 558.894615 362.228551 558.894615 360.245667 
C 558.894615 358.262782 558.112111 356.360845 556.719441 354.958734 
C 555.326771 353.556623 553.43764 352.768815 551.468108 352.768815 
C 549.498575 352.768815 547.609444 353.556623 546.216774 354.958734 
C 544.824104 356.360845 544.041601 358.262782 544.041601 360.245667 
C 544.041601 362.228551 544.824104 364.130488 546.216774 365.532599 
C 547.609444 366.93471 549.498575 367.722518 551.468108 367.722518 
z
" style="fill:#ff0000;stroke:#000000;stroke-linejoin:miter;"/>
   </g>
   <g id="patch_21">
    <path clip-path="url(#pf7afe51f55)" d="M 551.468108 397.629924 
C 561.315771 397.629924 570.761425 393.690883 577.724775 386.680328 
C 584.688124 379.669774 588.600642 370.160088 588.600642 360.245667 
C 588.600642 350.331246 584.688124 340.821559 577.724775 333.811005 
C 570.761425 326.80045 561.315771 322.861409 551.468108 322.861409 
C 541.620445 322.861409 532.17479 326.80045 525.211441 333.811005 
C 518.248091 340.821559 514.335573 350.331246 514.335573 360.245667 
C 514.335573 370.160088 518.248091 379.669774 525.211441 386.680328 
C 532.17479 393.690883 541.620445 397.629924 551.468108 397.629924 
z
" style="fill:none;stroke:#808080;stroke-linejoin:miter;"/>
   </g>
   <g id="patch_22">
    <path clip-path="url(#pf7afe51f55)" d="M 551.468108 435.014181 
C 571.163434 435.014181 590.054742 427.136099 603.981441 413.11499 
C 617.90814 399.093882 625.733176 380.074508 625.733176 360.245667 
C 625.733176 340.416825 617.90814 321.397451 603.981441 307.376343 
C 590.054742 293.355234 571.163434 285.477152 551.468108 285.477152 
C 531.772781 285.477152 512.881473 293.355234 498.954774 307.376343 
C 485.028075 321.397451 477.203039 340.416825 477.203039 360.245667 
C 477.203039 380.074508 485.028075 399.093882 498.954774 413.11499 
C 512.881473 427.136099 531.772781 435.014181 551.468108 435.014181 
z
" style="fill:none;stroke:#808080;stroke-linejoin:miter;"/>
   </g>
   <g id="patch_23">
    <path clip-path="url(#pf7afe51f55)" d="M 551.468108 472.398439 
C 581.011097 472.398439 609.34806 460.581315 630.238108 439.549652 
C 651.128156 418.517989 662.865711 389.988929 662.865711 360.245667 
C 662.865711 330.502404 651.128156 301.973344 630.238108 280.941681 
C 609.34806 259.910018 581.011097 248.092895 551.468108 248.092895 
C 521.925118 248.092895 493.588156 259.910018 472.698107 280.941681 
C 451.808059 301.973344 440.070505 330.502404 440.070505 360.245667 
C 440.070505 389.988929 451.808059 418.517989 472.698107 439.549652 
C 493.588156 460.581315 521.925118 472.398439 551.468108 472.398439 
z
" style="fill:none;stroke:#808080;stroke-linejoin:miter;"/>
   </g>
   <g id="patch_24">
    <path clip-path="url(#pf7afe51f55)" d="M 551.468108 509.782696 
C 590.858761 509.782696 628.641377 494.026531 656.494775 465.984314 
C 684.348173 437.942097 699.998245 399.90335 699.998245 360.245667 
C 699.998245 320.587983 684.348173 282.549236 656.494775 254.507019 
C 628.641377 226.464802 590.858761 210.708637 551.468108 210.708637 
C 512.077455 210.708637 474.294838 226.464802 446.44144 254.507019 
C 418.588043 282.549236 402.93797 320.587983 402.93797 360.245667 
C 402.93797 399.90335 418.588043 437.942097 446.44144 465.984314 
C 474.294838 494.026531 512.077455 509.782696 551.468108 509.782696 
z
" style="fill:none;stroke:#808080;stroke-linejoin:miter;"/>
   </g>
   <g id="line2d_13">
    <path clip-path="url(#pf7afe51f55)" d="M 551.468108 360.245667 
L 551.468108 269.796699 
" style="fill:none;stroke:#000000;stroke-dasharray:5.55,2.4;stroke-dashoffset:0;stroke-width:1.5;"/>
   </g>
   <g id="line2d_14">
    <path clip-path="url(#pf7afe51f55)" d="M 551.468108 360.245667 
L 622.753662 235.937029 
" style="fill:none;stroke:#000000;stroke-dasharray:5.55,2.4;stroke-dashoffset:0;stroke-width:1.5;"/>
   </g>
   <g id="line2d_15">
    <path clip-path="url(#pf7afe51f55)" d="M 551.468108 360.245667 
L 646.479866 305.018651 
" style="fill:none;stroke:#000000;stroke-dasharray:5.55,2.4;stroke-dashoffset:0;stroke-width:1.5;"/>
   </g>
   <g id="line2d_16">
    <path clip-path="url(#pf7afe51f55)" d="M 551.468108 360.245667 
L 641.486283 360.245667 
" style="fill:none;stroke:#000000;stroke-dasharray:5.55,2.4;stroke-dashoffset:0;stroke-width:1.5;"/>
   </g>
   <g id="line2d_17">
    <path clip-path="url(#pf7afe51f55)" d="M 551.468108 360.245667 
L 628.647338 405.106775 
" style="fill:none;stroke:#000000;stroke-dasharray:5.55,2.4;stroke-dashoffset:0;stroke-width:1.5;"/>
   </g>
   <g id="line2d_18">
    <path clip-path="url(#pf7afe51f55)" d="M 551.468108 360.245667 
L 608.531901 459.753587 
" style="fill:none;stroke:#000000;stroke-dasharray:5.55,2.4;stroke-dashoffset:0;stroke-width:1.5;"/>
   </g>
   <g id="line2d_19">
    <path clip-path="url(#pf7afe51f55)" d="M 551.468108 360.245667 
L 551.468108 412.493905 
" style="fill:none;stroke:#000000;stroke-dasharray:5.55,2.4;stroke-dashoffset:0;stroke-width:1.5;"/>
   </g>
   <g id="line2d_20">
    <path clip-path="url(#pf7afe51f55)" d="M 551.468108 360.245667 
L 521.98042 411.665469 
" style="fill:none;stroke:#000000;stroke-dasharray:5.55,2.4;stroke-dashoffset:0;stroke-width:1.5;"/>
   </g>
   <g id="line2d_21">
    <path clip-path="url(#pf7afe51f55)" d="M 551.468108 360.245667 
L 443.067843 423.254589 
" style="fill:none;stroke:#000000;stroke-dasharray:5.55,2.4;stroke-dashoffset:0;stroke-width:1.5;"/>
   </g>
   <g id="line2d_22">
    <path clip-path="url(#pf7afe51f55)" d="M 551.468108 360.245667 
L 443.813464 360.245667 
" style="fill:none;stroke:#000000;stroke-dasharray:5.55,2.4;stroke-dashoffset:0;stroke-width:1.5;"/>
   </g>
   <g id="line2d_23">
    <path clip-path="url(#pf7afe51f55)" d="M 551.468108 360.245667 
L 432.060274 290.838054 
" style="fill:none;stroke:#000000;stroke-dasharray:5.55,2.4;stroke-dashoffset:0;stroke-width:1.5;"/>
   </g>
   <g id="line2d_24">
    <path clip-path="url(#pf7afe51f55)" d="M 551.468108 360.245667 
L 513.979101 294.874059 
" style="fill:none;stroke:#000000;stroke-dasharray:5.55,2.4;stroke-dashoffset:0;stroke-width:1.5;"/>
   </g>
   <g id="patch_25">
    <path d="M 135 630 
L 135 86.4 
" style="fill:none;stroke:#000000;stroke-linecap:square;stroke-linejoin:miter;stroke-width:0.8;"/>
   </g>
   <g id="patch_26">
    <path d="M 972 630 
L 972 86.4 
" style="fill:none;stroke:#000000;stroke-linecap:square;stroke-linejoin:miter;stroke-width:0.8;"/>
   </g>
   <g id="patch_27">
    <path d="M 135 630 
L 972 630 
" style="fill:none;stroke:#000000;stroke-linecap:square;stroke-linejoin:miter;stroke-width:0.8;"/>
   </g>
   <g id="patch_28">
    <path d="M 135 86.4 
L 972 86.4 
" style="fill:none;stroke:#000000;stroke-linecap:square;stroke-linejoin:miter;stroke-width:0.8;"/>
   </g>
   <g id="text_13">
    <!-- Bersenev_GSE39553n_DE_ -->
    <defs>
     <path d="M 19.671875 34.8125 
L 19.671875 8.109375 
L 35.5 8.109375 
Q 43.453125 8.109375 47.28125 11.40625 
Q 51.125 14.703125 51.125 21.484375 
Q 51.125 28.328125 47.28125 31.5625 
Q 43.453125 34.8125 35.5 34.8125 
z
M 19.671875 64.796875 
L 19.671875 42.828125 
L 34.28125 42.828125 
Q 41.5 42.828125 45.03125 45.53125 
Q 48.578125 48.25 48.578125 53.8125 
Q 48.578125 59.328125 45.03125 62.0625 
Q 41.5 64.796875 34.28125 64.796875 
z
M 9.8125 72.90625 
L 35.015625 72.90625 
Q 46.296875 72.90625 52.390625 68.21875 
Q 58.5 63.53125 58.5 54.890625 
Q 58.5 48.1875 55.375 44.234375 
Q 52.25 40.28125 46.1875 39.3125 
Q 53.46875 37.75 57.5 32.78125 
Q 61.53125 27.828125 61.53125 20.40625 
Q 61.53125 10.640625 54.890625 5.3125 
Q 48.25 0 35.984375 0 
L 9.8125 0 
z
" id="DejaVuSans-66"/>
     <path d="M 56.203125 29.59375 
L 56.203125 25.203125 
L 14.890625 25.203125 
Q 15.484375 15.921875 20.484375 11.0625 
Q 25.484375 6.203125 34.421875 6.203125 
Q 39.59375 6.203125 44.453125 7.46875 
Q 49.3125 8.734375 54.109375 11.28125 
L 54.109375 2.78125 
Q 49.265625 0.734375 44.1875 -0.34375 
Q 39.109375 -1.421875 33.890625 -1.421875 
Q 20.796875 -1.421875 13.15625 6.1875 
Q 5.515625 13.8125 5.515625 26.8125 
Q 5.515625 40.234375 12.765625 48.109375 
Q 20.015625 56 32.328125 56 
Q 43.359375 56 49.78125 48.890625 
Q 56.203125 41.796875 56.203125 29.59375 
z
M 47.21875 32.234375 
Q 47.125 39.59375 43.09375 43.984375 
Q 39.0625 48.390625 32.421875 48.390625 
Q 24.90625 48.390625 20.390625 44.140625 
Q 15.875 39.890625 15.1875 32.171875 
z
" id="DejaVuSans-101"/>
     <path d="M 41.109375 46.296875 
Q 39.59375 47.171875 37.8125 47.578125 
Q 36.03125 48 33.890625 48 
Q 26.265625 48 22.1875 43.046875 
Q 18.109375 38.09375 18.109375 28.8125 
L 18.109375 0 
L 9.078125 0 
L 9.078125 54.6875 
L 18.109375 54.6875 
L 18.109375 46.1875 
Q 20.953125 51.171875 25.484375 53.578125 
Q 30.03125 56 36.53125 56 
Q 37.453125 56 38.578125 55.875 
Q 39.703125 55.765625 41.0625 55.515625 
z
" id="DejaVuSans-114"/>
     <path d="M 44.28125 53.078125 
L 44.28125 44.578125 
Q 40.484375 46.53125 36.375 47.5 
Q 32.28125 48.484375 27.875 48.484375 
Q 21.1875 48.484375 17.84375 46.4375 
Q 14.5 44.390625 14.5 40.28125 
Q 14.5 37.15625 16.890625 35.375 
Q 19.28125 33.59375 26.515625 31.984375 
L 29.59375 31.296875 
Q 39.15625 29.25 43.1875 25.515625 
Q 47.21875 21.78125 47.21875 15.09375 
Q 47.21875 7.46875 41.1875 3.015625 
Q 35.15625 -1.421875 24.609375 -1.421875 
Q 20.21875 -1.421875 15.453125 -0.5625 
Q 10.6875 0.296875 5.421875 2 
L 5.421875 11.28125 
Q 10.40625 8.6875 15.234375 7.390625 
Q 20.0625 6.109375 24.8125 6.109375 
Q 31.15625 6.109375 34.5625 8.28125 
Q 37.984375 10.453125 37.984375 14.40625 
Q 37.984375 18.0625 35.515625 20.015625 
Q 33.0625 21.96875 24.703125 23.78125 
L 21.578125 24.515625 
Q 13.234375 26.265625 9.515625 29.90625 
Q 5.8125 33.546875 5.8125 39.890625 
Q 5.8125 47.609375 11.28125 51.796875 
Q 16.75 56 26.8125 56 
Q 31.78125 56 36.171875 55.265625 
Q 40.578125 54.546875 44.28125 53.078125 
z
" id="DejaVuSans-115"/>
     <path d="M 54.890625 33.015625 
L 54.890625 0 
L 45.90625 0 
L 45.90625 32.71875 
Q 45.90625 40.484375 42.875 44.328125 
Q 39.84375 48.1875 33.796875 48.1875 
Q 26.515625 48.1875 22.3125 43.546875 
Q 18.109375 38.921875 18.109375 30.90625 
L 18.109375 0 
L 9.078125 0 
L 9.078125 54.6875 
L 18.109375 54.6875 
L 18.109375 46.1875 
Q 21.34375 51.125 25.703125 53.5625 
Q 30.078125 56 35.796875 56 
Q 45.21875 56 50.046875 50.171875 
Q 54.890625 44.34375 54.890625 33.015625 
z
" id="DejaVuSans-110"/>
     <path d="M 2.984375 54.6875 
L 12.5 54.6875 
L 29.59375 8.796875 
L 46.6875 54.6875 
L 56.203125 54.6875 
L 35.6875 0 
L 23.484375 0 
z
" id="DejaVuSans-118"/>
     <path d="M 50.984375 -16.609375 
L 50.984375 -23.578125 
L -0.984375 -23.578125 
L -0.984375 -16.609375 
z
" id="DejaVuSans-95"/>
     <path d="M 59.515625 10.40625 
L 59.515625 29.984375 
L 43.40625 29.984375 
L 43.40625 38.09375 
L 69.28125 38.09375 
L 69.28125 6.78125 
Q 63.578125 2.734375 56.6875 0.65625 
Q 49.8125 -1.421875 42 -1.421875 
Q 24.90625 -1.421875 15.25 8.5625 
Q 5.609375 18.5625 5.609375 36.375 
Q 5.609375 54.25 15.25 64.234375 
Q 24.90625 74.21875 42 74.21875 
Q 49.125 74.21875 55.546875 72.453125 
Q 61.96875 70.703125 67.390625 67.28125 
L 67.390625 56.78125 
Q 61.921875 61.421875 55.765625 63.765625 
Q 49.609375 66.109375 42.828125 66.109375 
Q 29.4375 66.109375 22.71875 58.640625 
Q 16.015625 51.171875 16.015625 36.375 
Q 16.015625 21.625 22.71875 14.15625 
Q 29.4375 6.6875 42.828125 6.6875 
Q 48.046875 6.6875 52.140625 7.59375 
Q 56.25 8.5 59.515625 10.40625 
z
" id="DejaVuSans-71"/>
     <path d="M 53.515625 70.515625 
L 53.515625 60.890625 
Q 47.90625 63.578125 42.921875 64.890625 
Q 37.9375 66.21875 33.296875 66.21875 
Q 25.25 66.21875 20.875 63.09375 
Q 16.5 59.96875 16.5 54.203125 
Q 16.5 49.359375 19.40625 46.890625 
Q 22.3125 44.4375 30.421875 42.921875 
L 36.375 41.703125 
Q 47.40625 39.59375 52.65625 34.296875 
Q 57.90625 29 57.90625 20.125 
Q 57.90625 9.515625 50.796875 4.046875 
Q 43.703125 -1.421875 29.984375 -1.421875 
Q 24.8125 -1.421875 18.96875 -0.25 
Q 13.140625 0.921875 6.890625 3.21875 
L 6.890625 13.375 
Q 12.890625 10.015625 18.65625 8.296875 
Q 24.421875 6.59375 29.984375 6.59375 
Q 38.421875 6.59375 43.015625 9.90625 
Q 47.609375 13.234375 47.609375 19.390625 
Q 47.609375 24.75 44.3125 27.78125 
Q 41.015625 30.8125 33.5 32.328125 
L 27.484375 33.5 
Q 16.453125 35.6875 11.515625 40.375 
Q 6.59375 45.0625 6.59375 53.421875 
Q 6.59375 63.09375 13.40625 68.65625 
Q 20.21875 74.21875 32.171875 74.21875 
Q 37.3125 74.21875 42.625 73.28125 
Q 47.953125 72.359375 53.515625 70.515625 
z
" id="DejaVuSans-83"/>
     <path d="M 9.8125 72.90625 
L 55.90625 72.90625 
L 55.90625 64.59375 
L 19.671875 64.59375 
L 19.671875 43.015625 
L 54.390625 43.015625 
L 54.390625 34.71875 
L 19.671875 34.71875 
L 19.671875 8.296875 
L 56.78125 8.296875 
L 56.78125 0 
L 9.8125 0 
z
" id="DejaVuSans-69"/>
     <path d="M 40.578125 39.3125 
Q 47.65625 37.796875 51.625 33 
Q 55.609375 28.21875 55.609375 21.1875 
Q 55.609375 10.40625 48.1875 4.484375 
Q 40.765625 -1.421875 27.09375 -1.421875 
Q 22.515625 -1.421875 17.65625 -0.515625 
Q 12.796875 0.390625 7.625 2.203125 
L 7.625 11.71875 
Q 11.71875 9.328125 16.59375 8.109375 
Q 21.484375 6.890625 26.8125 6.890625 
Q 36.078125 6.890625 40.9375 10.546875 
Q 45.796875 14.203125 45.796875 21.1875 
Q 45.796875 27.640625 41.28125 31.265625 
Q 36.765625 34.90625 28.71875 34.90625 
L 20.21875 34.90625 
L 20.21875 43.015625 
L 29.109375 43.015625 
Q 36.375 43.015625 40.234375 45.921875 
Q 44.09375 48.828125 44.09375 54.296875 
Q 44.09375 59.90625 40.109375 62.90625 
Q 36.140625 65.921875 28.71875 65.921875 
Q 24.65625 65.921875 20.015625 65.03125 
Q 15.375 64.15625 9.8125 62.3125 
L 9.8125 71.09375 
Q 15.4375 72.65625 20.34375 73.4375 
Q 25.25 74.21875 29.59375 74.21875 
Q 40.828125 74.21875 47.359375 69.109375 
Q 53.90625 64.015625 53.90625 55.328125 
Q 53.90625 49.265625 50.4375 45.09375 
Q 46.96875 40.921875 40.578125 39.3125 
z
" id="DejaVuSans-51"/>
     <path d="M 10.984375 1.515625 
L 10.984375 10.5 
Q 14.703125 8.734375 18.5 7.8125 
Q 22.3125 6.890625 25.984375 6.890625 
Q 35.75 6.890625 40.890625 13.453125 
Q 46.046875 20.015625 46.78125 33.40625 
Q 43.953125 29.203125 39.59375 26.953125 
Q 35.25 24.703125 29.984375 24.703125 
Q 19.046875 24.703125 12.671875 31.3125 
Q 6.296875 37.9375 6.296875 49.421875 
Q 6.296875 60.640625 12.9375 67.421875 
Q 19.578125 74.21875 30.609375 74.21875 
Q 43.265625 74.21875 49.921875 64.515625 
Q 56.59375 54.828125 56.59375 36.375 
Q 56.59375 19.140625 48.40625 8.859375 
Q 40.234375 -1.421875 26.421875 -1.421875 
Q 22.703125 -1.421875 18.890625 -0.6875 
Q 15.09375 0.046875 10.984375 1.515625 
z
M 30.609375 32.421875 
Q 37.25 32.421875 41.125 36.953125 
Q 45.015625 41.5 45.015625 49.421875 
Q 45.015625 57.28125 41.125 61.84375 
Q 37.25 66.40625 30.609375 66.40625 
Q 23.96875 66.40625 20.09375 61.84375 
Q 16.21875 57.28125 16.21875 49.421875 
Q 16.21875 41.5 20.09375 36.953125 
Q 23.96875 32.421875 30.609375 32.421875 
z
" id="DejaVuSans-57"/>
     <path d="M 10.796875 72.90625 
L 49.515625 72.90625 
L 49.515625 64.59375 
L 19.828125 64.59375 
L 19.828125 46.734375 
Q 21.96875 47.46875 24.109375 47.828125 
Q 26.265625 48.1875 28.421875 48.1875 
Q 40.625 48.1875 47.75 41.5 
Q 54.890625 34.8125 54.890625 23.390625 
Q 54.890625 11.625 47.5625 5.09375 
Q 40.234375 -1.421875 26.90625 -1.421875 
Q 22.3125 -1.421875 17.546875 -0.640625 
Q 12.796875 0.140625 7.71875 1.703125 
L 7.71875 11.625 
Q 12.109375 9.234375 16.796875 8.0625 
Q 21.484375 6.890625 26.703125 6.890625 
Q 35.15625 6.890625 40.078125 11.328125 
Q 45.015625 15.765625 45.015625 23.390625 
Q 45.015625 31 40.078125 35.4375 
Q 35.15625 39.890625 26.703125 39.890625 
Q 22.75 39.890625 18.8125 39.015625 
Q 14.890625 38.140625 10.796875 36.28125 
z
" id="DejaVuSans-53"/>
     <path d="M 19.671875 64.796875 
L 19.671875 8.109375 
L 31.59375 8.109375 
Q 46.6875 8.109375 53.6875 14.9375 
Q 60.6875 21.78125 60.6875 36.53125 
Q 60.6875 51.171875 53.6875 57.984375 
Q 46.6875 64.796875 31.59375 64.796875 
z
M 9.8125 72.90625 
L 30.078125 72.90625 
Q 51.265625 72.90625 61.171875 64.09375 
Q 71.09375 55.28125 71.09375 36.53125 
Q 71.09375 17.671875 61.125 8.828125 
Q 51.171875 0 30.078125 0 
L 9.8125 0 
z
" id="DejaVuSans-68"/>
    </defs>
    <g transform="translate(551.468108 269.796699)scale(0.1 -0.1)">
     <use xlink:href="#DejaVuSans-66"/>
     <use x="68.603516" xlink:href="#DejaVuSans-101"/>
     <use x="130.126953" xlink:href="#DejaVuSans-114"/>
     <use x="171.240234" xlink:href="#DejaVuSans-115"/>
     <use x="223.339844" xlink:href="#DejaVuSans-101"/>
     <use x="284.863281" xlink:href="#DejaVuSans-110"/>
     <use x="348.242188" xlink:href="#DejaVuSans-101"/>
     <use x="409.765625" xlink:href="#DejaVuSans-118"/>
     <use x="468.945312" xlink:href="#DejaVuSans-95"/>
     <use x="518.945312" xlink:href="#DejaVuSans-71"/>
     <use x="596.435547" xlink:href="#DejaVuSans-83"/>
     <use x="659.912109" xlink:href="#DejaVuSans-69"/>
     <use x="723.095703" xlink:href="#DejaVuSans-51"/>
     <use x="786.71875" xlink:href="#DejaVuSans-57"/>
     <use x="850.341797" xlink:href="#DejaVuSans-53"/>
     <use x="913.964844" xlink:href="#DejaVuSans-53"/>
     <use x="977.587891" xlink:href="#DejaVuSans-51"/>
     <use x="1041.210938" xlink:href="#DejaVuSans-110"/>
     <use x="1104.589844" xlink:href="#DejaVuSans-95"/>
     <use x="1154.589844" xlink:href="#DejaVuSans-68"/>
     <use x="1231.591797" xlink:href="#DejaVuSans-69"/>
     <use x="1294.775391" xlink:href="#DejaVuSans-95"/>
    </g>
   </g>
   <g id="text_14">
    <!-- Chambers_GSE6503_ -->
    <defs>
     <path d="M 64.40625 67.28125 
L 64.40625 56.890625 
Q 59.421875 61.53125 53.78125 63.8125 
Q 48.140625 66.109375 41.796875 66.109375 
Q 29.296875 66.109375 22.65625 58.46875 
Q 16.015625 50.828125 16.015625 36.375 
Q 16.015625 21.96875 22.65625 14.328125 
Q 29.296875 6.6875 41.796875 6.6875 
Q 48.140625 6.6875 53.78125 8.984375 
Q 59.421875 11.28125 64.40625 15.921875 
L 64.40625 5.609375 
Q 59.234375 2.09375 53.4375 0.328125 
Q 47.65625 -1.421875 41.21875 -1.421875 
Q 24.65625 -1.421875 15.125 8.703125 
Q 5.609375 18.84375 5.609375 36.375 
Q 5.609375 53.953125 15.125 64.078125 
Q 24.65625 74.21875 41.21875 74.21875 
Q 47.75 74.21875 53.53125 72.484375 
Q 59.328125 70.75 64.40625 67.28125 
z
" id="DejaVuSans-67"/>
     <path d="M 54.890625 33.015625 
L 54.890625 0 
L 45.90625 0 
L 45.90625 32.71875 
Q 45.90625 40.484375 42.875 44.328125 
Q 39.84375 48.1875 33.796875 48.1875 
Q 26.515625 48.1875 22.3125 43.546875 
Q 18.109375 38.921875 18.109375 30.90625 
L 18.109375 0 
L 9.078125 0 
L 9.078125 75.984375 
L 18.109375 75.984375 
L 18.109375 46.1875 
Q 21.34375 51.125 25.703125 53.5625 
Q 30.078125 56 35.796875 56 
Q 45.21875 56 50.046875 50.171875 
Q 54.890625 44.34375 54.890625 33.015625 
z
" id="DejaVuSans-104"/>
     <path d="M 34.28125 27.484375 
Q 23.390625 27.484375 19.1875 25 
Q 14.984375 22.515625 14.984375 16.5 
Q 14.984375 11.71875 18.140625 8.90625 
Q 21.296875 6.109375 26.703125 6.109375 
Q 34.1875 6.109375 38.703125 11.40625 
Q 43.21875 16.703125 43.21875 25.484375 
L 43.21875 27.484375 
z
M 52.203125 31.203125 
L 52.203125 0 
L 43.21875 0 
L 43.21875 8.296875 
Q 40.140625 3.328125 35.546875 0.953125 
Q 30.953125 -1.421875 24.3125 -1.421875 
Q 15.921875 -1.421875 10.953125 3.296875 
Q 6 8.015625 6 15.921875 
Q 6 25.140625 12.171875 29.828125 
Q 18.359375 34.515625 30.609375 34.515625 
L 43.21875 34.515625 
L 43.21875 35.40625 
Q 43.21875 41.609375 39.140625 45 
Q 35.0625 48.390625 27.6875 48.390625 
Q 23 48.390625 18.546875 47.265625 
Q 14.109375 46.140625 10.015625 43.890625 
L 10.015625 52.203125 
Q 14.9375 54.109375 19.578125 55.046875 
Q 24.21875 56 28.609375 56 
Q 40.484375 56 46.34375 49.84375 
Q 52.203125 43.703125 52.203125 31.203125 
z
" id="DejaVuSans-97"/>
     <path d="M 52 44.1875 
Q 55.375 50.25 60.0625 53.125 
Q 64.75 56 71.09375 56 
Q 79.640625 56 84.28125 50.015625 
Q 88.921875 44.046875 88.921875 33.015625 
L 88.921875 0 
L 79.890625 0 
L 79.890625 32.71875 
Q 79.890625 40.578125 77.09375 44.375 
Q 74.3125 48.1875 68.609375 48.1875 
Q 61.625 48.1875 57.5625 43.546875 
Q 53.515625 38.921875 53.515625 30.90625 
L 53.515625 0 
L 44.484375 0 
L 44.484375 32.71875 
Q 44.484375 40.625 41.703125 44.40625 
Q 38.921875 48.1875 33.109375 48.1875 
Q 26.21875 48.1875 22.15625 43.53125 
Q 18.109375 38.875 18.109375 30.90625 
L 18.109375 0 
L 9.078125 0 
L 9.078125 54.6875 
L 18.109375 54.6875 
L 18.109375 46.1875 
Q 21.1875 51.21875 25.484375 53.609375 
Q 29.78125 56 35.6875 56 
Q 41.65625 56 45.828125 52.96875 
Q 50 49.953125 52 44.1875 
z
" id="DejaVuSans-109"/>
     <path d="M 48.6875 27.296875 
Q 48.6875 37.203125 44.609375 42.84375 
Q 40.53125 48.484375 33.40625 48.484375 
Q 26.265625 48.484375 22.1875 42.84375 
Q 18.109375 37.203125 18.109375 27.296875 
Q 18.109375 17.390625 22.1875 11.75 
Q 26.265625 6.109375 33.40625 6.109375 
Q 40.53125 6.109375 44.609375 11.75 
Q 48.6875 17.390625 48.6875 27.296875 
z
M 18.109375 46.390625 
Q 20.953125 51.265625 25.265625 53.625 
Q 29.59375 56 35.59375 56 
Q 45.5625 56 51.78125 48.09375 
Q 58.015625 40.1875 58.015625 27.296875 
Q 58.015625 14.40625 51.78125 6.484375 
Q 45.5625 -1.421875 35.59375 -1.421875 
Q 29.59375 -1.421875 25.265625 0.953125 
Q 20.953125 3.328125 18.109375 8.203125 
L 18.109375 0 
L 9.078125 0 
L 9.078125 75.984375 
L 18.109375 75.984375 
z
" id="DejaVuSans-98"/>
    </defs>
    <g transform="translate(622.753662 235.937029)scale(0.1 -0.1)">
     <use xlink:href="#DejaVuSans-67"/>
     <use x="69.824219" xlink:href="#DejaVuSans-104"/>
     <use x="133.203125" xlink:href="#DejaVuSans-97"/>
     <use x="194.482422" xlink:href="#DejaVuSans-109"/>
     <use x="291.894531" xlink:href="#DejaVuSans-98"/>
     <use x="355.371094" xlink:href="#DejaVuSans-101"/>
     <use x="416.894531" xlink:href="#DejaVuSans-114"/>
     <use x="458.007812" xlink:href="#DejaVuSans-115"/>
     <use x="510.107422" xlink:href="#DejaVuSans-95"/>
     <use x="560.107422" xlink:href="#DejaVuSans-71"/>
     <use x="637.597656" xlink:href="#DejaVuSans-83"/>
     <use x="701.074219" xlink:href="#DejaVuSans-69"/>
     <use x="764.257812" xlink:href="#DejaVuSans-54"/>
     <use x="827.880859" xlink:href="#DejaVuSans-53"/>
     <use x="891.503906" xlink:href="#DejaVuSans-48"/>
     <use x="955.126953" xlink:href="#DejaVuSans-51"/>
     <use x="1018.75" xlink:href="#DejaVuSans-95"/>
    </g>
   </g>
   <g id="text_15">
    <!-- Flach_GSE48893_ -->
    <defs>
     <path d="M 9.8125 72.90625 
L 51.703125 72.90625 
L 51.703125 64.59375 
L 19.671875 64.59375 
L 19.671875 43.109375 
L 48.578125 43.109375 
L 48.578125 34.8125 
L 19.671875 34.8125 
L 19.671875 0 
L 9.8125 0 
z
" id="DejaVuSans-70"/>
     <path d="M 9.421875 75.984375 
L 18.40625 75.984375 
L 18.40625 0 
L 9.421875 0 
z
" id="DejaVuSans-108"/>
     <path d="M 48.78125 52.59375 
L 48.78125 44.1875 
Q 44.96875 46.296875 41.140625 47.34375 
Q 37.3125 48.390625 33.40625 48.390625 
Q 24.65625 48.390625 19.8125 42.84375 
Q 14.984375 37.3125 14.984375 27.296875 
Q 14.984375 17.28125 19.8125 11.734375 
Q 24.65625 6.203125 33.40625 6.203125 
Q 37.3125 6.203125 41.140625 7.25 
Q 44.96875 8.296875 48.78125 10.40625 
L 48.78125 2.09375 
Q 45.015625 0.34375 40.984375 -0.53125 
Q 36.96875 -1.421875 32.421875 -1.421875 
Q 20.0625 -1.421875 12.78125 6.34375 
Q 5.515625 14.109375 5.515625 27.296875 
Q 5.515625 40.671875 12.859375 48.328125 
Q 20.21875 56 33.015625 56 
Q 37.15625 56 41.109375 55.140625 
Q 45.0625 54.296875 48.78125 52.59375 
z
" id="DejaVuSans-99"/>
    </defs>
    <g transform="translate(646.479866 305.018651)scale(0.1 -0.1)">
     <use xlink:href="#DejaVuSans-70"/>
     <use x="57.519531" xlink:href="#DejaVuSans-108"/>
     <use x="85.302734" xlink:href="#DejaVuSans-97"/>
     <use x="146.582031" xlink:href="#DejaVuSans-99"/>
     <use x="201.5625" xlink:href="#DejaVuSans-104"/>
     <use x="264.941406" xlink:href="#DejaVuSans-95"/>
     <use x="314.941406" xlink:href="#DejaVuSans-71"/>
     <use x="392.431641" xlink:href="#DejaVuSans-83"/>
     <use x="455.908203" xlink:href="#DejaVuSans-69"/>
     <use x="519.091797" xlink:href="#DejaVuSans-52"/>
     <use x="582.714844" xlink:href="#DejaVuSans-56"/>
     <use x="646.337891" xlink:href="#DejaVuSans-56"/>
     <use x="709.960938" xlink:href="#DejaVuSans-57"/>
     <use x="773.583984" xlink:href="#DejaVuSans-51"/>
     <use x="837.207031" xlink:href="#DejaVuSans-95"/>
    </g>
   </g>
   <g id="text_16">
    <!-- Grover_GSE70657_DE -->
    <defs>
     <path d="M 30.609375 48.390625 
Q 23.390625 48.390625 19.1875 42.75 
Q 14.984375 37.109375 14.984375 27.296875 
Q 14.984375 17.484375 19.15625 11.84375 
Q 23.34375 6.203125 30.609375 6.203125 
Q 37.796875 6.203125 41.984375 11.859375 
Q 46.1875 17.53125 46.1875 27.296875 
Q 46.1875 37.015625 41.984375 42.703125 
Q 37.796875 48.390625 30.609375 48.390625 
z
M 30.609375 56 
Q 42.328125 56 49.015625 48.375 
Q 55.71875 40.765625 55.71875 27.296875 
Q 55.71875 13.875 49.015625 6.21875 
Q 42.328125 -1.421875 30.609375 -1.421875 
Q 18.84375 -1.421875 12.171875 6.21875 
Q 5.515625 13.875 5.515625 27.296875 
Q 5.515625 40.765625 12.171875 48.375 
Q 18.84375 56 30.609375 56 
z
" id="DejaVuSans-111"/>
     <path d="M 8.203125 72.90625 
L 55.078125 72.90625 
L 55.078125 68.703125 
L 28.609375 0 
L 18.3125 0 
L 43.21875 64.59375 
L 8.203125 64.59375 
z
" id="DejaVuSans-55"/>
    </defs>
    <g transform="translate(641.486283 360.245667)scale(0.1 -0.1)">
     <use xlink:href="#DejaVuSans-71"/>
     <use x="77.490234" xlink:href="#DejaVuSans-114"/>
     <use x="118.572266" xlink:href="#DejaVuSans-111"/>
     <use x="179.753906" xlink:href="#DejaVuSans-118"/>
     <use x="238.933594" xlink:href="#DejaVuSans-101"/>
     <use x="300.457031" xlink:href="#DejaVuSans-114"/>
     <use x="341.570312" xlink:href="#DejaVuSans-95"/>
     <use x="391.570312" xlink:href="#DejaVuSans-71"/>
     <use x="469.060547" xlink:href="#DejaVuSans-83"/>
     <use x="532.537109" xlink:href="#DejaVuSans-69"/>
     <use x="595.720703" xlink:href="#DejaVuSans-55"/>
     <use x="659.34375" xlink:href="#DejaVuSans-48"/>
     <use x="722.966797" xlink:href="#DejaVuSans-54"/>
     <use x="786.589844" xlink:href="#DejaVuSans-53"/>
     <use x="850.212891" xlink:href="#DejaVuSans-55"/>
     <use x="913.835938" xlink:href="#DejaVuSans-95"/>
     <use x="963.835938" xlink:href="#DejaVuSans-68"/>
     <use x="1040.837891" xlink:href="#DejaVuSans-69"/>
    </g>
   </g>
   <g id="text_17">
    <!-- Kirshner_GSE87631_DE -->
    <defs>
     <path d="M 9.8125 72.90625 
L 19.671875 72.90625 
L 19.671875 42.09375 
L 52.390625 72.90625 
L 65.09375 72.90625 
L 28.90625 38.921875 
L 67.671875 0 
L 54.6875 0 
L 19.671875 35.109375 
L 19.671875 0 
L 9.8125 0 
z
" id="DejaVuSans-75"/>
     <path d="M 9.421875 54.6875 
L 18.40625 54.6875 
L 18.40625 0 
L 9.421875 0 
z
M 9.421875 75.984375 
L 18.40625 75.984375 
L 18.40625 64.59375 
L 9.421875 64.59375 
z
" id="DejaVuSans-105"/>
    </defs>
    <g transform="translate(628.647338 405.106775)scale(0.1 -0.1)">
     <use xlink:href="#DejaVuSans-75"/>
     <use x="65.576172" xlink:href="#DejaVuSans-105"/>
     <use x="93.359375" xlink:href="#DejaVuSans-114"/>
     <use x="134.472656" xlink:href="#DejaVuSans-115"/>
     <use x="186.572266" xlink:href="#DejaVuSans-104"/>
     <use x="249.951172" xlink:href="#DejaVuSans-110"/>
     <use x="313.330078" xlink:href="#DejaVuSans-101"/>
     <use x="374.853516" xlink:href="#DejaVuSans-114"/>
     <use x="415.966797" xlink:href="#DejaVuSans-95"/>
     <use x="465.966797" xlink:href="#DejaVuSans-71"/>
     <use x="543.457031" xlink:href="#DejaVuSans-83"/>
     <use x="606.933594" xlink:href="#DejaVuSans-69"/>
     <use x="670.117188" xlink:href="#DejaVuSans-56"/>
     <use x="733.740234" xlink:href="#DejaVuSans-55"/>
     <use x="797.363281" xlink:href="#DejaVuSans-54"/>
     <use x="860.986328" xlink:href="#DejaVuSans-51"/>
     <use x="924.609375" xlink:href="#DejaVuSans-49"/>
     <use x="988.232422" xlink:href="#DejaVuSans-95"/>
     <use x="1038.232422" xlink:href="#DejaVuSans-68"/>
     <use x="1115.234375" xlink:href="#DejaVuSans-69"/>
    </g>
   </g>
   <g id="text_18">
    <!-- Kowalczyk_GSE59114_DE -->
    <defs>
     <path d="M 4.203125 54.6875 
L 13.1875 54.6875 
L 24.421875 12.015625 
L 35.59375 54.6875 
L 46.1875 54.6875 
L 57.421875 12.015625 
L 68.609375 54.6875 
L 77.59375 54.6875 
L 63.28125 0 
L 52.6875 0 
L 40.921875 44.828125 
L 29.109375 0 
L 18.5 0 
z
" id="DejaVuSans-119"/>
     <path d="M 5.515625 54.6875 
L 48.1875 54.6875 
L 48.1875 46.484375 
L 14.40625 7.171875 
L 48.1875 7.171875 
L 48.1875 0 
L 4.296875 0 
L 4.296875 8.203125 
L 38.09375 47.515625 
L 5.515625 47.515625 
z
" id="DejaVuSans-122"/>
     <path d="M 32.171875 -5.078125 
Q 28.375 -14.84375 24.75 -17.8125 
Q 21.140625 -20.796875 15.09375 -20.796875 
L 7.90625 -20.796875 
L 7.90625 -13.28125 
L 13.1875 -13.28125 
Q 16.890625 -13.28125 18.9375 -11.515625 
Q 21 -9.765625 23.484375 -3.21875 
L 25.09375 0.875 
L 2.984375 54.6875 
L 12.5 54.6875 
L 29.59375 11.921875 
L 46.6875 54.6875 
L 56.203125 54.6875 
z
" id="DejaVuSans-121"/>
     <path d="M 9.078125 75.984375 
L 18.109375 75.984375 
L 18.109375 31.109375 
L 44.921875 54.6875 
L 56.390625 54.6875 
L 27.390625 29.109375 
L 57.625 0 
L 45.90625 0 
L 18.109375 26.703125 
L 18.109375 0 
L 9.078125 0 
z
" id="DejaVuSans-107"/>
    </defs>
    <g transform="translate(608.531901 459.753587)scale(0.1 -0.1)">
     <use xlink:href="#DejaVuSans-75"/>
     <use x="65.498047" xlink:href="#DejaVuSans-111"/>
     <use x="126.679688" xlink:href="#DejaVuSans-119"/>
     <use x="208.466797" xlink:href="#DejaVuSans-97"/>
     <use x="269.746094" xlink:href="#DejaVuSans-108"/>
     <use x="297.529297" xlink:href="#DejaVuSans-99"/>
     <use x="352.509766" xlink:href="#DejaVuSans-122"/>
     <use x="405" xlink:href="#DejaVuSans-121"/>
     <use x="464.179688" xlink:href="#DejaVuSans-107"/>
     <use x="522.089844" xlink:href="#DejaVuSans-95"/>
     <use x="572.089844" xlink:href="#DejaVuSans-71"/>
     <use x="649.580078" xlink:href="#DejaVuSans-83"/>
     <use x="713.056641" xlink:href="#DejaVuSans-69"/>
     <use x="776.240234" xlink:href="#DejaVuSans-53"/>
     <use x="839.863281" xlink:href="#DejaVuSans-57"/>
     <use x="903.486328" xlink:href="#DejaVuSans-49"/>
     <use x="967.109375" xlink:href="#DejaVuSans-49"/>
     <use x="1030.732422" xlink:href="#DejaVuSans-52"/>
     <use x="1094.355469" xlink:href="#DejaVuSans-95"/>
     <use x="1144.355469" xlink:href="#DejaVuSans-68"/>
     <use x="1221.357422" xlink:href="#DejaVuSans-69"/>
    </g>
   </g>
   <g id="text_19">
    <!-- Lazare_DE -->
    <defs>
     <path d="M 9.8125 72.90625 
L 19.671875 72.90625 
L 19.671875 8.296875 
L 55.171875 8.296875 
L 55.171875 0 
L 9.8125 0 
z
" id="DejaVuSans-76"/>
    </defs>
    <g transform="translate(551.468108 412.493905)scale(0.1 -0.1)">
     <use xlink:href="#DejaVuSans-76"/>
     <use x="55.712891" xlink:href="#DejaVuSans-97"/>
     <use x="116.992188" xlink:href="#DejaVuSans-122"/>
     <use x="169.482422" xlink:href="#DejaVuSans-97"/>
     <use x="230.761719" xlink:href="#DejaVuSans-114"/>
     <use x="271.84375" xlink:href="#DejaVuSans-101"/>
     <use x="333.367188" xlink:href="#DejaVuSans-95"/>
     <use x="383.367188" xlink:href="#DejaVuSans-68"/>
     <use x="460.369141" xlink:href="#DejaVuSans-69"/>
    </g>
   </g>
   <g id="text_20">
    <!-- Mann_GSE1004426_DE -->
    <defs>
     <path d="M 9.8125 72.90625 
L 24.515625 72.90625 
L 43.109375 23.296875 
L 61.8125 72.90625 
L 76.515625 72.90625 
L 76.515625 0 
L 66.890625 0 
L 66.890625 64.015625 
L 48.09375 14.015625 
L 38.1875 14.015625 
L 19.390625 64.015625 
L 19.390625 0 
L 9.8125 0 
z
" id="DejaVuSans-77"/>
    </defs>
    <g transform="translate(521.98042 411.665469)scale(0.1 -0.1)">
     <use xlink:href="#DejaVuSans-77"/>
     <use x="86.279297" xlink:href="#DejaVuSans-97"/>
     <use x="147.558594" xlink:href="#DejaVuSans-110"/>
     <use x="210.9375" xlink:href="#DejaVuSans-110"/>
     <use x="274.316406" xlink:href="#DejaVuSans-95"/>
     <use x="324.316406" xlink:href="#DejaVuSans-71"/>
     <use x="401.806641" xlink:href="#DejaVuSans-83"/>
     <use x="465.283203" xlink:href="#DejaVuSans-69"/>
     <use x="528.466797" xlink:href="#DejaVuSans-49"/>
     <use x="592.089844" xlink:href="#DejaVuSans-48"/>
     <use x="655.712891" xlink:href="#DejaVuSans-48"/>
     <use x="719.335938" xlink:href="#DejaVuSans-52"/>
     <use x="782.958984" xlink:href="#DejaVuSans-52"/>
     <use x="846.582031" xlink:href="#DejaVuSans-50"/>
     <use x="910.205078" xlink:href="#DejaVuSans-54"/>
     <use x="973.828125" xlink:href="#DejaVuSans-95"/>
     <use x="1023.828125" xlink:href="#DejaVuSans-68"/>
     <use x="1100.830078" xlink:href="#DejaVuSans-69"/>
    </g>
   </g>
   <g id="text_21">
    <!-- Maryanovich_GSE109546_DE -->
    <g transform="translate(443.067843 423.254589)scale(0.1 -0.1)">
     <use xlink:href="#DejaVuSans-77"/>
     <use x="86.279297" xlink:href="#DejaVuSans-97"/>
     <use x="147.558594" xlink:href="#DejaVuSans-114"/>
     <use x="188.671875" xlink:href="#DejaVuSans-121"/>
     <use x="247.851562" xlink:href="#DejaVuSans-97"/>
     <use x="309.130859" xlink:href="#DejaVuSans-110"/>
     <use x="372.509766" xlink:href="#DejaVuSans-111"/>
     <use x="433.691406" xlink:href="#DejaVuSans-118"/>
     <use x="492.871094" xlink:href="#DejaVuSans-105"/>
     <use x="520.654297" xlink:href="#DejaVuSans-99"/>
     <use x="575.634766" xlink:href="#DejaVuSans-104"/>
     <use x="639.013672" xlink:href="#DejaVuSans-95"/>
     <use x="689.013672" xlink:href="#DejaVuSans-71"/>
     <use x="766.503906" xlink:href="#DejaVuSans-83"/>
     <use x="829.980469" xlink:href="#DejaVuSans-69"/>
     <use x="893.164062" xlink:href="#DejaVuSans-49"/>
     <use x="956.787109" xlink:href="#DejaVuSans-48"/>
     <use x="1020.410156" xlink:href="#DejaVuSans-57"/>
     <use x="1084.033203" xlink:href="#DejaVuSans-53"/>
     <use x="1147.65625" xlink:href="#DejaVuSans-52"/>
     <use x="1211.279297" xlink:href="#DejaVuSans-54"/>
     <use x="1274.902344" xlink:href="#DejaVuSans-95"/>
     <use x="1324.902344" xlink:href="#DejaVuSans-68"/>
     <use x="1401.904297" xlink:href="#DejaVuSans-69"/>
    </g>
   </g>
   <g id="text_22">
    <!-- Norddahl_GSE27686_DE_ -->
    <defs>
     <path d="M 9.8125 72.90625 
L 23.09375 72.90625 
L 55.421875 11.921875 
L 55.421875 72.90625 
L 64.984375 72.90625 
L 64.984375 0 
L 51.703125 0 
L 19.390625 60.984375 
L 19.390625 0 
L 9.8125 0 
z
" id="DejaVuSans-78"/>
     <path d="M 45.40625 46.390625 
L 45.40625 75.984375 
L 54.390625 75.984375 
L 54.390625 0 
L 45.40625 0 
L 45.40625 8.203125 
Q 42.578125 3.328125 38.25 0.953125 
Q 33.9375 -1.421875 27.875 -1.421875 
Q 17.96875 -1.421875 11.734375 6.484375 
Q 5.515625 14.40625 5.515625 27.296875 
Q 5.515625 40.1875 11.734375 48.09375 
Q 17.96875 56 27.875 56 
Q 33.9375 56 38.25 53.625 
Q 42.578125 51.265625 45.40625 46.390625 
z
M 14.796875 27.296875 
Q 14.796875 17.390625 18.875 11.75 
Q 22.953125 6.109375 30.078125 6.109375 
Q 37.203125 6.109375 41.296875 11.75 
Q 45.40625 17.390625 45.40625 27.296875 
Q 45.40625 37.203125 41.296875 42.84375 
Q 37.203125 48.484375 30.078125 48.484375 
Q 22.953125 48.484375 18.875 42.84375 
Q 14.796875 37.203125 14.796875 27.296875 
z
" id="DejaVuSans-100"/>
    </defs>
    <g transform="translate(443.813464 360.245667)scale(0.1 -0.1)">
     <use xlink:href="#DejaVuSans-78"/>
     <use x="74.804688" xlink:href="#DejaVuSans-111"/>
     <use x="135.986328" xlink:href="#DejaVuSans-114"/>
     <use x="177.083984" xlink:href="#DejaVuSans-100"/>
     <use x="240.560547" xlink:href="#DejaVuSans-100"/>
     <use x="304.037109" xlink:href="#DejaVuSans-97"/>
     <use x="365.316406" xlink:href="#DejaVuSans-104"/>
     <use x="428.695312" xlink:href="#DejaVuSans-108"/>
     <use x="456.478516" xlink:href="#DejaVuSans-95"/>
     <use x="506.478516" xlink:href="#DejaVuSans-71"/>
     <use x="583.96875" xlink:href="#DejaVuSans-83"/>
     <use x="647.445312" xlink:href="#DejaVuSans-69"/>
     <use x="710.628906" xlink:href="#DejaVuSans-50"/>
     <use x="774.251953" xlink:href="#DejaVuSans-55"/>
     <use x="837.875" xlink:href="#DejaVuSans-54"/>
     <use x="901.498047" xlink:href="#DejaVuSans-56"/>
     <use x="965.121094" xlink:href="#DejaVuSans-54"/>
     <use x="1028.744141" xlink:href="#DejaVuSans-95"/>
     <use x="1078.744141" xlink:href="#DejaVuSans-68"/>
     <use x="1155.746094" xlink:href="#DejaVuSans-69"/>
     <use x="1218.929688" xlink:href="#DejaVuSans-95"/>
    </g>
   </g>
   <g id="text_23">
    <!-- Sun_GSE47817_DE -->
    <defs>
     <path d="M 8.5 21.578125 
L 8.5 54.6875 
L 17.484375 54.6875 
L 17.484375 21.921875 
Q 17.484375 14.15625 20.5 10.265625 
Q 23.53125 6.390625 29.59375 6.390625 
Q 36.859375 6.390625 41.078125 11.03125 
Q 45.3125 15.671875 45.3125 23.6875 
L 45.3125 54.6875 
L 54.296875 54.6875 
L 54.296875 0 
L 45.3125 0 
L 45.3125 8.40625 
Q 42.046875 3.421875 37.71875 1 
Q 33.40625 -1.421875 27.6875 -1.421875 
Q 18.265625 -1.421875 13.375 4.4375 
Q 8.5 10.296875 8.5 21.578125 
z
M 31.109375 56 
z
" id="DejaVuSans-117"/>
    </defs>
    <g transform="translate(432.060274 290.838054)scale(0.1 -0.1)">
     <use xlink:href="#DejaVuSans-83"/>
     <use x="63.476562" xlink:href="#DejaVuSans-117"/>
     <use x="126.855469" xlink:href="#DejaVuSans-110"/>
     <use x="190.234375" xlink:href="#DejaVuSans-95"/>
     <use x="240.234375" xlink:href="#DejaVuSans-71"/>
     <use x="317.724609" xlink:href="#DejaVuSans-83"/>
     <use x="381.201172" xlink:href="#DejaVuSans-69"/>
     <use x="444.384766" xlink:href="#DejaVuSans-52"/>
     <use x="508.007812" xlink:href="#DejaVuSans-55"/>
     <use x="571.630859" xlink:href="#DejaVuSans-56"/>
     <use x="635.253906" xlink:href="#DejaVuSans-49"/>
     <use x="698.876953" xlink:href="#DejaVuSans-55"/>
     <use x="762.5" xlink:href="#DejaVuSans-95"/>
     <use x="812.5" xlink:href="#DejaVuSans-68"/>
     <use x="889.501953" xlink:href="#DejaVuSans-69"/>
    </g>
   </g>
   <g id="text_24">
    <!-- Wahlestedt_GSE44923_DE_ -->
    <defs>
     <path d="M 3.328125 72.90625 
L 13.28125 72.90625 
L 28.609375 11.28125 
L 43.890625 72.90625 
L 54.984375 72.90625 
L 70.3125 11.28125 
L 85.59375 72.90625 
L 95.609375 72.90625 
L 77.296875 0 
L 64.890625 0 
L 49.515625 63.28125 
L 33.984375 0 
L 21.578125 0 
z
" id="DejaVuSans-87"/>
     <path d="M 18.3125 70.21875 
L 18.3125 54.6875 
L 36.8125 54.6875 
L 36.8125 47.703125 
L 18.3125 47.703125 
L 18.3125 18.015625 
Q 18.3125 11.328125 20.140625 9.421875 
Q 21.96875 7.515625 27.59375 7.515625 
L 36.8125 7.515625 
L 36.8125 0 
L 27.59375 0 
Q 17.1875 0 13.234375 3.875 
Q 9.28125 7.765625 9.28125 18.015625 
L 9.28125 47.703125 
L 2.6875 47.703125 
L 2.6875 54.6875 
L 9.28125 54.6875 
L 9.28125 70.21875 
z
" id="DejaVuSans-116"/>
    </defs>
    <g transform="translate(513.979101 294.874059)scale(0.1 -0.1)">
     <use xlink:href="#DejaVuSans-87"/>
     <use x="98.783203" xlink:href="#DejaVuSans-97"/>
     <use x="160.0625" xlink:href="#DejaVuSans-104"/>
     <use x="223.441406" xlink:href="#DejaVuSans-108"/>
     <use x="251.224609" xlink:href="#DejaVuSans-101"/>
     <use x="312.748047" xlink:href="#DejaVuSans-115"/>
     <use x="364.847656" xlink:href="#DejaVuSans-116"/>
     <use x="404.056641" xlink:href="#DejaVuSans-101"/>
     <use x="465.580078" xlink:href="#DejaVuSans-100"/>
     <use x="529.056641" xlink:href="#DejaVuSans-116"/>
     <use x="568.265625" xlink:href="#DejaVuSans-95"/>
     <use x="618.265625" xlink:href="#DejaVuSans-71"/>
     <use x="695.755859" xlink:href="#DejaVuSans-83"/>
     <use x="759.232422" xlink:href="#DejaVuSans-69"/>
     <use x="822.416016" xlink:href="#DejaVuSans-52"/>
     <use x="886.039062" xlink:href="#DejaVuSans-52"/>
     <use x="949.662109" xlink:href="#DejaVuSans-57"/>
     <use x="1013.285156" xlink:href="#DejaVuSans-50"/>
     <use x="1076.908203" xlink:href="#DejaVuSans-51"/>
     <use x="1140.53125" xlink:href="#DejaVuSans-95"/>
     <use x="1190.53125" xlink:href="#DejaVuSans-68"/>
     <use x="1267.533203" xlink:href="#DejaVuSans-69"/>
     <use x="1330.716797" xlink:href="#DejaVuSans-95"/>
    </g>
   </g>
  </g>
 </g>
 <defs>
  <clipPath id="pf7afe51f55">
   <rect height="543.6" width="837" x="135" y="86.4"/>
  </clipPath>
 </defs>
</svg>
